<svg width="281" height="113" viewBox="0 0 281 113" fill="none" xmlns="http://www.w3.org/2000/svg">
<g clip-path="url(#clip0_34_2)">
<rect x="54" y="12" width="90" height="48" rx="24" transform="rotate(90 54 12)" stroke="#11426B" stroke-width="6"/>
<path d="M82.904 25.32C82.264 25.32 81.752 25.1493 81.368 24.808C80.984 24.4667 80.792 23.9973 80.792 23.4V7.336C80.792 5.84267 81.2187 4.68 82.072 3.848C82.9467 3.016 84.152 2.6 85.688 2.6H91.096C94.3387 2.6 96.8027 3.272 98.488 4.616C100.173 5.96 101.016 7.93333 101.016 10.536C101.016 13.1387 100.195 15.112 98.552 16.456C96.9093 17.8 94.488 18.472 91.288 18.472H85.048V23.4C85.048 23.976 84.8453 24.4453 84.44 24.808C84.056 25.1493 83.544 25.32 82.904 25.32ZM91.256 15.176C94.904 15.176 96.728 13.6293 96.728 10.536C96.728 7.44267 94.904 5.896 91.256 5.896H86.424C85.9973 5.896 85.656 6.03467 85.4 6.312C85.1653 6.58933 85.048 6.97333 85.048 7.464V15.176H91.256ZM107.012 25.32C106.351 25.32 105.839 25.1493 105.476 24.808C105.113 24.4667 104.932 23.9973 104.932 23.4V10.92C104.932 10.3013 105.103 9.832 105.444 9.512C105.807 9.17067 106.308 9 106.948 9C107.588 9 108.089 9.17067 108.452 9.512C108.815 9.85333 108.996 10.3227 108.996 10.92V11.976C109.657 11.1227 110.425 10.472 111.3 10.024C112.196 9.55467 113.156 9.32 114.18 9.32H114.884C115.567 9.32 116.089 9.46933 116.452 9.768C116.836 10.0453 117.028 10.4507 117.028 10.984C117.028 11.5173 116.836 11.9333 116.452 12.232C116.089 12.5093 115.567 12.648 114.884 12.648H113.796C112.367 12.648 111.225 13.1067 110.372 14.024C109.54 14.92 109.124 16.1573 109.124 17.736V23.4C109.124 23.9973 108.932 24.4667 108.548 24.808C108.164 25.1493 107.652 25.32 107.012 25.32ZM127.764 25.32C125.908 25.32 124.255 24.9893 122.804 24.328C121.375 23.6453 120.255 22.6853 119.444 21.448C118.634 20.2107 118.228 18.7813 118.228 17.16C118.228 15.5387 118.634 14.1093 119.444 12.872C120.255 11.6347 121.375 10.6853 122.804 10.024C124.255 9.34133 125.908 9 127.764 9C129.62 9 131.263 9.34133 132.692 10.024C134.143 10.6853 135.274 11.6347 136.084 12.872C136.895 14.1093 137.3 15.5387 137.3 17.16C137.3 18.7813 136.895 20.2107 136.084 21.448C135.274 22.6853 134.143 23.6453 132.692 24.328C131.263 24.9893 129.62 25.32 127.764 25.32ZM127.764 21.992C129.407 21.992 130.698 21.5653 131.636 20.712C132.596 19.8587 133.076 18.6747 133.076 17.16C133.076 15.6453 132.596 14.4613 131.636 13.608C130.698 12.7547 129.407 12.328 127.764 12.328C126.122 12.328 124.82 12.7547 123.86 13.608C122.922 14.4613 122.452 15.6453 122.452 17.16C122.452 18.6747 122.922 19.8587 123.86 20.712C124.82 21.5653 126.122 21.992 127.764 21.992ZM148.659 25.32C145.225 25.32 142.697 24.328 141.075 22.344C140.734 21.896 140.563 21.4907 140.563 21.128C140.563 20.616 140.83 20.168 141.363 19.784C141.726 19.5493 142.078 19.432 142.419 19.432C142.889 19.432 143.326 19.6347 143.731 20.04C144.457 20.7653 145.161 21.288 145.843 21.608C146.547 21.9067 147.411 22.056 148.435 22.056C149.31 22.056 150.046 21.9387 150.643 21.704C151.241 21.4693 151.539 21.1813 151.539 20.84C151.539 20.4133 151.294 20.0507 150.803 19.752C150.313 19.4533 149.321 19.0693 147.827 18.6C145.481 17.8747 143.817 17.1173 142.835 16.328C141.854 15.5173 141.363 14.5147 141.363 13.32C141.363 11.976 141.939 10.92 143.091 10.152C144.243 9.384 145.833 9 147.859 9C149.417 9 150.825 9.23467 152.083 9.704C153.342 10.1733 154.259 10.8027 154.835 11.592C155.113 11.9547 155.251 12.3173 155.251 12.68C155.251 13.192 154.995 13.608 154.483 13.928C154.121 14.1627 153.747 14.28 153.363 14.28C152.745 14.28 152.179 14.024 151.667 13.512C151.241 13.1067 150.686 12.7973 150.003 12.584C149.342 12.3707 148.617 12.264 147.827 12.264C146.334 12.264 145.587 12.616 145.587 13.32C145.587 13.5973 145.705 13.8427 145.939 14.056C146.174 14.2693 146.59 14.4933 147.187 14.728C147.806 14.9627 148.766 15.2827 150.067 15.688C152.158 16.328 153.619 17.032 154.451 17.8C155.305 18.568 155.731 19.5813 155.731 20.84C155.731 22.184 155.113 23.272 153.875 24.104C152.638 24.9147 150.899 25.32 148.659 25.32ZM161.392 34.568C160.731 34.568 160.219 34.3973 159.856 34.056C159.493 33.7147 159.312 33.2453 159.312 32.648V10.92C159.312 10.3227 159.493 9.85333 159.856 9.512C160.219 9.17067 160.731 9 161.392 9C162.032 9 162.544 9.17067 162.928 9.512C163.312 9.85333 163.504 10.3227 163.504 10.92V11.56C164.421 10.664 165.371 10.0133 166.352 9.608C167.355 9.20267 168.485 9 169.744 9C171.408 9 172.859 9.33067 174.096 9.992C175.355 10.6533 176.315 11.6027 176.976 12.84C177.659 14.056 178 15.496 178 17.16C178 18.8027 177.659 20.2427 176.976 21.48C176.293 22.7173 175.323 23.6667 174.064 24.328C172.805 24.9893 171.323 25.32 169.616 25.32C168.336 25.32 167.216 25.128 166.256 24.744C165.296 24.3387 164.389 23.6987 163.536 22.824L163.504 32.648C163.504 33.2453 163.312 33.7147 162.928 34.056C162.544 34.3973 162.032 34.568 161.392 34.568ZM168.752 21.992C170.331 21.992 171.557 21.576 172.432 20.744C173.328 19.8907 173.776 18.696 173.776 17.16C173.776 15.624 173.328 14.44 172.432 13.608C171.557 12.7547 170.331 12.328 168.752 12.328C167.109 12.328 165.819 12.7653 164.88 13.64C163.963 14.4933 163.504 15.6667 163.504 17.16C163.504 18.6533 163.963 19.8373 164.88 20.712C165.819 21.5653 167.109 21.992 168.752 21.992ZM190.321 25.32C188.486 25.32 186.886 24.9893 185.521 24.328C184.155 23.6667 183.099 22.7387 182.353 21.544C181.627 20.328 181.265 18.9093 181.265 17.288C181.265 14.664 182.022 12.6267 183.537 11.176C185.073 9.72533 187.227 9 190.001 9C191.707 9 193.211 9.26667 194.513 9.8C195.835 10.3333 196.859 11.08 197.585 12.04C198.331 12.9787 198.705 14.056 198.705 15.272C198.705 16.296 198.374 17.0853 197.713 17.64C197.073 18.1947 196.155 18.472 194.961 18.472H185.329C185.329 19.6667 185.745 20.5733 186.577 21.192C187.43 21.7893 188.678 22.088 190.321 22.088C192.049 22.088 193.521 21.704 194.737 20.936C195.419 20.5093 195.953 20.296 196.337 20.296C196.699 20.296 197.051 20.4667 197.393 20.808C197.755 21.1707 197.937 21.5653 197.937 21.992C197.937 22.504 197.723 22.9093 197.297 23.208C196.401 23.8907 195.355 24.4133 194.161 24.776C192.966 25.1387 191.686 25.32 190.321 25.32ZM193.681 15.528C194.043 15.528 194.299 15.464 194.449 15.336C194.598 15.1867 194.673 14.952 194.673 14.632C194.673 13.8853 194.246 13.2987 193.393 12.872C192.561 12.4453 191.43 12.232 190.001 12.232C188.571 12.232 187.441 12.5307 186.609 13.128C185.798 13.7253 185.393 14.5253 185.393 15.528H193.681ZM204.375 25.32C203.713 25.32 203.201 25.1493 202.839 24.808C202.476 24.4667 202.295 23.9973 202.295 23.4V10.92C202.295 10.3013 202.465 9.832 202.807 9.512C203.169 9.17067 203.671 9 204.311 9C204.951 9 205.452 9.17067 205.815 9.512C206.177 9.85333 206.359 10.3227 206.359 10.92V11.976C207.02 11.1227 207.788 10.472 208.663 10.024C209.559 9.55467 210.519 9.32 211.543 9.32H212.247C212.929 9.32 213.452 9.46933 213.815 9.768C214.199 10.0453 214.391 10.4507 214.391 10.984C214.391 11.5173 214.199 11.9333 213.815 12.232C213.452 12.5093 212.929 12.648 212.247 12.648H211.159C209.729 12.648 208.588 13.1067 207.735 14.024C206.903 14.92 206.487 16.1573 206.487 17.736V23.4C206.487 23.9973 206.295 24.4667 205.911 24.808C205.527 25.1493 205.015 25.32 204.375 25.32ZM225.127 25.32C223.271 25.32 221.617 24.9893 220.167 24.328C218.737 23.6453 217.617 22.6853 216.807 21.448C215.996 20.2107 215.591 18.7813 215.591 17.16C215.591 15.5387 215.996 14.1093 216.807 12.872C217.617 11.6347 218.737 10.6853 220.167 10.024C221.617 9.34133 223.271 9 225.127 9C226.983 9 228.625 9.34133 230.055 10.024C231.505 10.6853 232.636 11.6347 233.447 12.872C234.257 14.1093 234.663 15.5387 234.663 17.16C234.663 18.7813 234.257 20.2107 233.447 21.448C232.636 22.6853 231.505 23.6453 230.055 24.328C228.625 24.9893 226.983 25.32 225.127 25.32ZM225.127 21.992C226.769 21.992 228.06 21.5653 228.999 20.712C229.959 19.8587 230.439 18.6747 230.439 17.16C230.439 15.6453 229.959 14.4613 228.999 13.608C228.06 12.7547 226.769 12.328 225.127 12.328C223.484 12.328 222.183 12.7547 221.223 13.608C220.284 14.4613 219.815 15.6453 219.815 17.16C219.815 18.6747 220.284 19.8587 221.223 20.712C222.183 21.5653 223.484 21.992 225.127 21.992ZM245.062 25.32C242.864 25.32 241.147 24.6907 239.91 23.432C238.694 22.152 238.086 20.3813 238.086 18.12V10.92C238.086 10.3227 238.278 9.85333 238.662 9.512C239.046 9.17067 239.558 9 240.198 9C240.859 9 241.371 9.17067 241.734 9.512C242.096 9.85333 242.278 10.3227 242.278 10.92V18.12C242.278 19.336 242.598 20.2853 243.238 20.968C243.899 21.6507 244.816 21.992 245.99 21.992C247.504 21.992 248.678 21.512 249.51 20.552C250.363 19.592 250.79 18.2693 250.79 16.584V10.92C250.79 10.3227 250.982 9.85333 251.366 9.512C251.75 9.17067 252.262 9 252.902 9C253.563 9 254.075 9.17067 254.438 9.512C254.8 9.85333 254.982 10.3227 254.982 10.92V23.4C254.982 24.0187 254.8 24.4987 254.438 24.84C254.096 25.16 253.606 25.32 252.966 25.32C252.326 25.32 251.824 25.1493 251.462 24.808C251.099 24.4667 250.918 23.9973 250.918 23.4V22.472C250.128 23.4533 249.254 24.1787 248.294 24.648C247.355 25.096 246.278 25.32 245.062 25.32ZM266.669 25.32C263.235 25.32 260.707 24.328 259.085 22.344C258.744 21.896 258.573 21.4907 258.573 21.128C258.573 20.616 258.84 20.168 259.373 19.784C259.736 19.5493 260.088 19.432 260.429 19.432C260.899 19.432 261.336 19.6347 261.741 20.04C262.467 20.7653 263.171 21.288 263.853 21.608C264.557 21.9067 265.421 22.056 266.445 22.056C267.32 22.056 268.056 21.9387 268.653 21.704C269.251 21.4693 269.549 21.1813 269.549 20.84C269.549 20.4133 269.304 20.0507 268.813 19.752C268.323 19.4533 267.331 19.0693 265.837 18.6C263.491 17.8747 261.827 17.1173 260.845 16.328C259.864 15.5173 259.373 14.5147 259.373 13.32C259.373 11.976 259.949 10.92 261.101 10.152C262.253 9.384 263.843 9 265.869 9C267.427 9 268.835 9.23467 270.093 9.704C271.352 10.1733 272.269 10.8027 272.845 11.592C273.123 11.9547 273.261 12.3173 273.261 12.68C273.261 13.192 273.005 13.608 272.493 13.928C272.131 14.1627 271.757 14.28 271.373 14.28C270.755 14.28 270.189 14.024 269.677 13.512C269.251 13.1067 268.696 12.7973 268.013 12.584C267.352 12.3707 266.627 12.264 265.837 12.264C264.344 12.264 263.597 12.616 263.597 13.32C263.597 13.5973 263.715 13.8427 263.949 14.056C264.184 14.2693 264.6 14.4933 265.197 14.728C265.816 14.9627 266.776 15.2827 268.077 15.688C270.168 16.328 271.629 17.032 272.461 17.8C273.315 18.568 273.741 19.5813 273.741 20.84C273.741 22.184 273.123 23.272 271.885 24.104C270.648 24.9147 268.909 25.32 266.669 25.32ZM80.792 47.336C80.792 45.8427 81.2187 44.68 82.072 43.848C82.9467 43.016 84.152 42.6 85.688 42.6H91.384C94.5627 42.6 96.9627 43.2187 98.584 44.456C100.205 45.6933 101.016 47.5387 101.016 49.992C101.016 52.2747 100.333 54.056 98.968 55.336C97.624 56.616 95.8107 57.256 93.528 57.256L98.392 62.088C98.776 62.472 98.968 62.9093 98.968 63.4C98.968 63.912 98.744 64.36 98.296 64.744C97.8267 65.1067 97.368 65.288 96.92 65.288C96.3013 65.288 95.736 65.0107 95.224 64.456L88.312 57.384H85.048V63.4C85.048 63.9973 84.8453 64.4667 84.44 64.808C84.0347 65.1493 83.5227 65.32 82.904 65.32C82.264 65.32 81.752 65.1493 81.368 64.808C80.984 64.4667 80.792 63.9973 80.792 63.4V47.336ZM91.256 54.088C92.664 54.088 93.7627 53.9493 94.552 53.672C95.3413 53.3947 95.896 52.968 96.216 52.392C96.5573 51.7947 96.728 50.9947 96.728 49.992C96.728 48.5413 96.28 47.496 95.384 46.856C94.5093 46.216 93.1333 45.896 91.256 45.896H86.424C85.9973 45.896 85.656 46.0347 85.4 46.312C85.1653 46.5893 85.048 46.9733 85.048 47.464V54.088H91.256ZM107.556 47.016C106.767 47.016 106.127 46.8027 105.636 46.376C105.167 45.928 104.932 45.352 104.932 44.648C104.932 43.944 105.167 43.3787 105.636 42.952C106.127 42.504 106.767 42.28 107.556 42.28C108.345 42.28 108.985 42.504 109.476 42.952C109.988 43.3787 110.244 43.944 110.244 44.648C110.244 45.352 109.988 45.928 109.476 46.376C108.985 46.8027 108.345 47.016 107.556 47.016ZM107.588 65.32C106.927 65.32 106.415 65.1493 106.052 64.808C105.689 64.4667 105.508 63.9973 105.508 63.4V50.92C105.508 50.3227 105.689 49.8533 106.052 49.512C106.415 49.1707 106.927 49 107.588 49C108.228 49 108.74 49.1707 109.124 49.512C109.508 49.8533 109.7 50.3227 109.7 50.92V63.4C109.7 63.9973 109.508 64.4667 109.124 64.808C108.74 65.1493 108.228 65.32 107.588 65.32ZM122.59 65.32C120.051 65.32 118.291 63.9013 117.31 61.064L113.918 51.336C113.854 51.144 113.822 50.9627 113.822 50.792C113.822 50.3013 114.035 49.8853 114.462 49.544C114.91 49.2027 115.486 49.032 116.19 49.032C116.617 49.032 116.979 49.128 117.278 49.32C117.577 49.512 117.79 49.7787 117.918 50.12L121.502 60.52C121.673 61.0533 121.843 61.4373 122.014 61.672C122.185 61.8853 122.377 61.992 122.59 61.992C122.803 61.992 122.995 61.8853 123.166 61.672C123.337 61.4373 123.507 61.0533 123.678 60.52L127.262 50.12C127.39 49.7787 127.603 49.512 127.902 49.32C128.201 49.128 128.563 49.032 128.99 49.032C129.715 49.032 130.291 49.2027 130.718 49.544C131.145 49.864 131.358 50.28 131.358 50.792C131.358 50.9627 131.326 51.144 131.262 51.336L127.87 61.064C126.889 63.9013 125.129 65.32 122.59 65.32ZM142.244 65.32C140.41 65.32 138.81 64.9893 137.444 64.328C136.079 63.6667 135.023 62.7387 134.276 61.544C133.551 60.328 133.188 58.9093 133.188 57.288C133.188 54.664 133.946 52.6267 135.46 51.176C136.996 49.7253 139.151 49 141.924 49C143.631 49 145.135 49.2667 146.436 49.8C147.759 50.3333 148.783 51.08 149.508 52.04C150.255 52.9787 150.628 54.056 150.628 55.272C150.628 56.296 150.298 57.0853 149.636 57.64C148.996 58.1947 148.079 58.472 146.884 58.472H137.252C137.252 59.6667 137.668 60.5733 138.5 61.192C139.354 61.7893 140.602 62.088 142.244 62.088C143.972 62.088 145.444 61.704 146.66 60.936C147.343 60.5093 147.876 60.296 148.26 60.296C148.623 60.296 148.975 60.4667 149.316 60.808C149.679 61.1707 149.86 61.5653 149.86 61.992C149.86 62.504 149.647 62.9093 149.22 63.208C148.324 63.8907 147.279 64.4133 146.084 64.776C144.89 65.1387 143.61 65.32 142.244 65.32ZM145.604 55.528C145.967 55.528 146.223 55.464 146.372 55.336C146.522 55.1867 146.596 54.952 146.596 54.632C146.596 53.8853 146.17 53.2987 145.316 52.872C144.484 52.4453 143.354 52.232 141.924 52.232C140.495 52.232 139.364 52.5307 138.532 53.128C137.722 53.7253 137.316 54.5253 137.316 55.528H145.604ZM156.298 65.32C155.637 65.32 155.125 65.1493 154.762 64.808C154.4 64.4667 154.218 63.9973 154.218 63.4V50.92C154.218 50.3013 154.389 49.832 154.73 49.512C155.093 49.1707 155.594 49 156.234 49C156.874 49 157.376 49.1707 157.738 49.512C158.101 49.8533 158.282 50.3227 158.282 50.92V51.976C158.944 51.1227 159.712 50.472 160.586 50.024C161.482 49.5547 162.442 49.32 163.466 49.32H164.17C164.853 49.32 165.376 49.4693 165.738 49.768C166.122 50.0453 166.314 50.4507 166.314 50.984C166.314 51.5173 166.122 51.9333 165.738 52.232C165.376 52.5093 164.853 52.648 164.17 52.648H163.082C161.653 52.648 160.512 53.1067 159.658 54.024C158.826 54.92 158.41 56.1573 158.41 57.736V63.4C158.41 63.9973 158.218 64.4667 157.834 64.808C157.45 65.1493 156.938 65.32 156.298 65.32ZM188.939 65.32C186.933 65.32 185.173 64.9147 183.659 64.104C182.165 63.2933 181.003 62.1413 180.171 60.648C179.36 59.1333 178.955 57.352 178.955 55.304V44.2C178.955 43.6027 179.147 43.1333 179.531 42.792C179.915 42.4507 180.427 42.28 181.067 42.28C181.707 42.28 182.219 42.4613 182.603 42.824C183.008 43.1653 183.211 43.624 183.211 44.2V55.4C183.211 57.512 183.712 59.1333 184.715 60.264C185.717 61.3947 187.157 61.96 189.035 61.96C190.891 61.96 192.32 61.3947 193.323 60.264C194.347 59.112 194.859 57.4907 194.859 55.4V44.2C194.859 43.624 195.051 43.1653 195.435 42.824C195.84 42.4613 196.363 42.28 197.003 42.28C197.643 42.28 198.155 42.4507 198.539 42.792C198.923 43.1333 199.115 43.6027 199.115 44.2V55.304C199.115 57.288 198.688 59.0373 197.835 60.552C197.003 62.0667 195.819 63.24 194.283 64.072C192.747 64.904 190.965 65.32 188.939 65.32ZM205.272 65.32C204.611 65.32 204.099 65.1493 203.736 64.808C203.373 64.4667 203.192 63.9973 203.192 63.4V50.92C203.192 50.3013 203.363 49.832 203.704 49.512C204.067 49.1707 204.568 49 205.208 49C205.848 49 206.349 49.1707 206.712 49.512C207.075 49.8533 207.256 50.3227 207.256 50.92V51.848C208.771 49.9493 210.84 49 213.464 49C215.512 49 217.123 49.6507 218.296 50.952C219.491 52.232 220.088 53.9813 220.088 56.2V63.4C220.088 63.9973 219.896 64.4667 219.512 64.808C219.128 65.1493 218.616 65.32 217.976 65.32C217.315 65.32 216.803 65.1493 216.44 64.808C216.077 64.4667 215.896 63.9973 215.896 63.4V56.2C215.896 54.984 215.597 54.0347 215 53.352C214.403 52.6693 213.571 52.328 212.504 52.328C210.883 52.328 209.624 52.808 208.728 53.768C207.832 54.7067 207.384 56.0293 207.384 57.736V63.4C207.384 63.9973 207.192 64.4667 206.808 64.808C206.424 65.1493 205.912 65.32 205.272 65.32ZM226.463 47.016C225.674 47.016 225.034 46.8027 224.543 46.376C224.074 45.928 223.839 45.352 223.839 44.648C223.839 43.944 224.074 43.3787 224.543 42.952C225.034 42.504 225.674 42.28 226.463 42.28C227.253 42.28 227.893 42.504 228.383 42.952C228.895 43.3787 229.151 43.944 229.151 44.648C229.151 45.352 228.895 45.928 228.383 46.376C227.893 46.8027 227.253 47.016 226.463 47.016ZM226.495 65.32C225.834 65.32 225.322 65.1493 224.959 64.808C224.597 64.4667 224.415 63.9973 224.415 63.4V50.92C224.415 50.3227 224.597 49.8533 224.959 49.512C225.322 49.1707 225.834 49 226.495 49C227.135 49 227.647 49.1707 228.031 49.512C228.415 49.8533 228.607 50.3227 228.607 50.92V63.4C228.607 63.9973 228.415 64.4667 228.031 64.808C227.647 65.1493 227.135 65.32 226.495 65.32ZM242.266 65.32C240.409 65.32 238.756 64.9893 237.305 64.328C235.876 63.6453 234.756 62.6853 233.945 61.448C233.135 60.2107 232.729 58.7813 232.729 57.16C232.729 55.5387 233.135 54.1093 233.945 52.872C234.756 51.6347 235.876 50.6853 237.305 50.024C238.756 49.3413 240.409 49 242.266 49C244.122 49 245.764 49.3413 247.194 50.024C248.644 50.6853 249.775 51.6347 250.586 52.872C251.396 54.1093 251.802 55.5387 251.802 57.16C251.802 58.7813 251.396 60.2107 250.586 61.448C249.775 62.6853 248.644 63.6453 247.194 64.328C245.764 64.9893 244.122 65.32 242.266 65.32ZM242.266 61.992C243.908 61.992 245.199 61.5653 246.137 60.712C247.097 59.8587 247.577 58.6747 247.577 57.16C247.577 55.6453 247.097 54.4613 246.137 53.608C245.199 52.7547 243.908 52.328 242.266 52.328C240.623 52.328 239.321 52.7547 238.361 53.608C237.423 54.4613 236.953 55.6453 236.953 57.16C236.953 58.6747 237.423 59.8587 238.361 60.712C239.321 61.5653 240.623 61.992 242.266 61.992ZM256.996 65.32C256.334 65.32 255.822 65.1493 255.46 64.808C255.097 64.4667 254.916 63.9973 254.916 63.4V50.92C254.916 50.3013 255.086 49.832 255.428 49.512C255.79 49.1707 256.292 49 256.932 49C257.572 49 258.073 49.1707 258.436 49.512C258.798 49.8533 258.98 50.3227 258.98 50.92V51.848C260.494 49.9493 262.564 49 265.188 49C267.236 49 268.846 49.6507 270.02 50.952C271.214 52.232 271.812 53.9813 271.812 56.2V63.4C271.812 63.9973 271.62 64.4667 271.236 64.808C270.852 65.1493 270.34 65.32 269.7 65.32C269.038 65.32 268.526 65.1493 268.164 64.808C267.801 64.4667 267.62 63.9973 267.62 63.4V56.2C267.62 54.984 267.321 54.0347 266.724 53.352C266.126 52.6693 265.294 52.328 264.228 52.328C262.606 52.328 261.348 52.808 260.452 53.768C259.556 54.7067 259.108 56.0293 259.108 57.736V63.4C259.108 63.9973 258.916 64.4667 258.532 64.808C258.148 65.1493 257.636 65.32 256.996 65.32ZM85.912 105C84.2907 105 83.032 104.573 82.136 103.72C81.24 102.867 80.792 101.672 80.792 100.136V84.2C80.792 83.6027 80.984 83.1333 81.368 82.792C81.752 82.4507 82.264 82.28 82.904 82.28C83.544 82.28 84.056 82.4613 84.44 82.824C84.8453 83.1653 85.048 83.624 85.048 84.2V100.136C85.048 100.627 85.1653 101.011 85.4 101.288C85.656 101.565 85.9973 101.704 86.424 101.704H96.664C97.304 101.704 97.7947 101.853 98.136 102.152C98.4773 102.429 98.648 102.835 98.648 103.368C98.648 103.88 98.4667 104.285 98.104 104.584C97.7627 104.861 97.2827 105 96.664 105H85.912ZM104.525 87.016C103.735 87.016 103.095 86.8027 102.605 86.376C102.135 85.928 101.901 85.352 101.901 84.648C101.901 83.944 102.135 83.3787 102.605 82.952C103.095 82.504 103.735 82.28 104.525 82.28C105.314 82.28 105.954 82.504 106.445 82.952C106.957 83.3787 107.213 83.944 107.213 84.648C107.213 85.352 106.957 85.928 106.445 86.376C105.954 86.8027 105.314 87.016 104.525 87.016ZM104.557 105.32C103.895 105.32 103.383 105.149 103.021 104.808C102.658 104.467 102.477 103.997 102.477 103.4V90.92C102.477 90.3227 102.658 89.8533 103.021 89.512C103.383 89.1707 103.895 89 104.557 89C105.197 89 105.709 89.1707 106.093 89.512C106.477 89.8533 106.669 90.3227 106.669 90.92V103.4C106.669 103.997 106.477 104.467 106.093 104.808C105.709 105.149 105.197 105.32 104.557 105.32ZM113.191 105.32C112.529 105.32 112.017 105.149 111.655 104.808C111.292 104.467 111.111 103.997 111.111 103.4V90.92C111.111 90.3227 111.292 89.8533 111.655 89.512C112.017 89.1707 112.529 89 113.191 89C113.831 89 114.343 89.1707 114.727 89.512C115.111 89.8533 115.303 90.3227 115.303 90.92V91.688C115.793 90.8347 116.412 90.1733 117.159 89.704C117.905 89.2347 118.716 89 119.591 89C120.487 89 121.297 89.2453 122.023 89.736C122.748 90.2053 123.292 90.856 123.655 91.688C125.169 89.896 126.887 89 128.807 89C130.513 89 131.847 89.5973 132.807 90.792C133.767 91.9867 134.247 93.6507 134.247 95.784V103.4C134.247 103.997 134.055 104.467 133.671 104.808C133.287 105.149 132.775 105.32 132.135 105.32C131.473 105.32 130.961 105.149 130.599 104.808C130.236 104.467 130.055 103.997 130.055 103.4V95.528C130.055 94.4827 129.863 93.6933 129.479 93.16C129.116 92.6053 128.572 92.328 127.847 92.328C127.228 92.328 126.684 92.4987 126.215 92.84C125.745 93.1813 125.308 93.7253 124.903 94.472V103.4C124.903 103.997 124.711 104.467 124.327 104.808C123.943 105.149 123.431 105.32 122.791 105.32C122.129 105.32 121.617 105.149 121.255 104.808C120.892 104.467 120.711 103.997 120.711 103.4V96.2C120.711 93.6187 119.975 92.328 118.503 92.328C117.5 92.328 116.711 92.7227 116.135 93.512C115.58 94.3013 115.303 95.3893 115.303 96.776V103.4C115.303 103.997 115.111 104.467 114.727 104.808C114.343 105.149 113.831 105.32 113.191 105.32ZM140.601 87.016C139.812 87.016 139.172 86.8027 138.681 86.376C138.212 85.928 137.977 85.352 137.977 84.648C137.977 83.944 138.212 83.3787 138.681 82.952C139.172 82.504 139.812 82.28 140.601 82.28C141.39 82.28 142.03 82.504 142.521 82.952C143.033 83.3787 143.289 83.944 143.289 84.648C143.289 85.352 143.033 85.928 142.521 86.376C142.03 86.8027 141.39 87.016 140.601 87.016ZM140.633 105.32C139.972 105.32 139.46 105.149 139.097 104.808C138.734 104.467 138.553 103.997 138.553 103.4V90.92C138.553 90.3227 138.734 89.8533 139.097 89.512C139.46 89.1707 139.972 89 140.633 89C141.273 89 141.785 89.1707 142.169 89.512C142.553 89.8533 142.745 90.3227 142.745 90.92V103.4C142.745 103.997 142.553 104.467 142.169 104.808C141.785 105.149 141.273 105.32 140.633 105.32ZM160.243 100.872C160.584 101.149 160.755 101.491 160.755 101.896C160.755 102.301 160.606 102.717 160.307 103.144C159.838 103.827 159.176 104.36 158.323 104.744C157.47 105.128 156.51 105.32 155.443 105.32C153.736 105.32 152.392 104.861 151.411 103.944C150.451 103.005 149.971 101.725 149.971 100.104V92.616H148.659C148.019 92.616 147.507 92.4667 147.123 92.168C146.739 91.8693 146.547 91.4747 146.547 90.984C146.547 90.472 146.728 90.0667 147.091 89.768C147.475 89.4693 147.998 89.32 148.659 89.32H149.971V84.488C149.971 83.8907 150.163 83.4213 150.547 83.08C150.931 82.7387 151.443 82.568 152.083 82.568C152.744 82.568 153.256 82.7387 153.619 83.08C153.982 83.4213 154.163 83.8907 154.163 84.488V89.32H157.235C157.896 89.32 158.408 89.4693 158.771 89.768C159.155 90.0667 159.347 90.472 159.347 90.984C159.347 91.4747 159.155 91.8693 158.771 92.168C158.408 92.4667 157.896 92.616 157.235 92.616H154.163V100.456C154.163 100.925 154.302 101.299 154.579 101.576C154.878 101.853 155.272 101.992 155.763 101.992C156.147 101.992 156.478 101.939 156.755 101.832C157.054 101.704 157.352 101.501 157.651 101.224C158.206 100.691 158.718 100.424 159.187 100.424C159.528 100.424 159.88 100.573 160.243 100.872ZM172.758 105.32C170.923 105.32 169.323 104.989 167.958 104.328C166.593 103.667 165.537 102.739 164.79 101.544C164.065 100.328 163.702 98.9093 163.702 97.288C163.702 94.664 164.459 92.6267 165.974 91.176C167.51 89.7253 169.665 89 172.438 89C174.145 89 175.649 89.2667 176.95 89.8C178.273 90.3333 179.297 91.08 180.022 92.04C180.769 92.9787 181.142 94.056 181.142 95.272C181.142 96.296 180.811 97.0853 180.15 97.64C179.51 98.1947 178.593 98.472 177.398 98.472H167.766C167.766 99.6667 168.182 100.573 169.014 101.192C169.867 101.789 171.115 102.088 172.758 102.088C174.486 102.088 175.958 101.704 177.174 100.936C177.857 100.509 178.39 100.296 178.774 100.296C179.137 100.296 179.489 100.467 179.83 100.808C180.193 101.171 180.374 101.565 180.374 101.992C180.374 102.504 180.161 102.909 179.734 103.208C178.838 103.891 177.793 104.413 176.598 104.776C175.403 105.139 174.123 105.32 172.758 105.32ZM176.118 95.528C176.481 95.528 176.737 95.464 176.886 95.336C177.035 95.1867 177.11 94.952 177.11 94.632C177.11 93.8853 176.683 93.2987 175.83 92.872C174.998 92.4453 173.867 92.232 172.438 92.232C171.009 92.232 169.878 92.5307 169.046 93.128C168.235 93.7253 167.83 94.5253 167.83 95.528H176.118ZM191.519 105.32C189.855 105.32 188.372 105 187.071 104.36C185.791 103.699 184.788 102.749 184.063 101.512C183.337 100.275 182.975 98.824 182.975 97.16C182.975 95.496 183.316 94.056 183.999 92.84C184.703 91.6027 185.705 90.6533 187.007 89.992C188.308 89.3307 189.844 89 191.615 89C192.916 89 194.015 89.2133 194.911 89.64C195.807 90.0453 196.649 90.664 197.439 91.496L197.471 82.632C197.471 82.0347 197.663 81.5653 198.047 81.224C198.431 80.8827 198.943 80.712 199.583 80.712C200.223 80.712 200.724 80.8827 201.087 81.224C201.471 81.544 201.663 82.0133 201.663 82.632V103.4C201.663 104.019 201.471 104.499 201.087 104.84C200.724 105.16 200.223 105.32 199.583 105.32C198.943 105.32 198.431 105.149 198.047 104.808C197.663 104.467 197.471 103.997 197.471 103.4V102.76C196.041 104.467 194.057 105.32 191.519 105.32ZM192.159 101.992C193.823 101.992 195.124 101.565 196.063 100.712C197.001 99.8587 197.471 98.6747 197.471 97.16C197.471 95.6453 197.001 94.4613 196.063 93.608C195.124 92.7547 193.823 92.328 192.159 92.328C190.601 92.328 189.385 92.7547 188.511 93.608C187.636 94.4613 187.199 95.6453 187.199 97.16C187.199 98.6747 187.636 99.8587 188.511 100.712C189.385 101.565 190.601 101.992 192.159 101.992Z" fill="white"/>
</g>
<defs>
<clipPath id="clip0_34_2">
<rect width="281" height="113" fill="white"/>
</clipPath>
</defs>
</svg>
